<?xml version="1.0" encoding="UTF-8"?>
<svg version="1.1" xmlns="http://www.w3.org/2000/svg" width="2250" height="2250">
<path d="M0 0 C3.322951 2.86591081 6.5933616 5.78534847 9.83203125 8.74609375 C11.93515481 10.64876832 14.06397501 12.50702683 16.2109375 14.359375 C20.47188765 18.08041535 24.48922334 22.0089874 28.4765625 26.01953125 C29.14494141 26.68404297 29.81332031 27.34855469 30.50195312 28.03320312 C35.01106438 32.55107845 39.27161038 37.22707977 43.4140625 42.08203125 C43.95313232 42.70907959 44.49220215 43.33612793 45.04760742 43.98217773 C75.38594484 79.49499127 103.08443634 122.60091378 99.4140625 171.08203125 C95.18808674 203.50345004 76.0626456 233.75798905 56.4140625 259.08203125 C55.78113281 259.89800781 55.14820313 260.71398438 54.49609375 261.5546875 C52.49776716 264.08864802 50.46140547 266.58752492 48.4140625 269.08203125 C47.65867187 270.02433594 46.90328125 270.96664063 46.125 271.9375 C39.19992534 280.40309911 31.56065848 288.15113545 23.8515625 295.89453125 C23.32112335 296.43014679 22.7906842 296.96576233 22.24417114 297.51760864 C15.30149857 304.51359057 8.13754408 310.93964649 0.4140625 317.08203125 C-1.42182187 318.66240594 -3.25573325 320.24508199 -5.0859375 321.83203125 C-37.30847167 348.67719555 -78.57917511 371.44973424 -121.5859375 368.08203125 C-175.60107828 360.88064501 -227.47688264 317.21033109 -261.5859375 277.08203125 C-262.39675781 276.14875 -263.20757812 275.21546875 -264.04296875 274.25390625 C-292.20259921 241.67285476 -321.00323718 199.70943933 -319.8671875 154.8828125 C-317.10155183 117.50831928 -296.52880447 83.66531143 -273.5859375 55.08203125 C-272.79574219 54.07914063 -272.00554687 53.07625 -271.19140625 52.04296875 C-266.23469086 45.84484176 -260.92624395 40.0181117 -255.5078125 34.2265625 C-252.89692155 31.43270494 -250.36240231 28.57761799 -247.8359375 25.70703125 C-244.5894345 22.07962086 -241.19197737 18.85350199 -237.47265625 15.71875 C-235.636477 14.125874 -233.95924717 12.45690969 -232.2734375 10.70703125 C-227.7119563 6.09452677 -222.67805395 2.08839305 -217.5859375 -1.91796875 C-216.95333008 -2.41635254 -216.32072266 -2.91473633 -215.66894531 -3.42822266 C-200.40707833 -15.39781398 -184.78502285 -25.92140886 -167.5859375 -34.91796875 C-166.88210938 -35.28696289 -166.17828125 -35.65595703 -165.453125 -36.03613281 C-105.08591519 -67.2089008 -48.48145133 -40.4512419 0 0 Z M-154.5859375 97.08203125 C-155.40707031 97.78070312 -156.22820312 98.479375 -157.07421875 99.19921875 C-172.49864999 112.68060345 -190.60062589 133.02614463 -192.95703125 154.45703125 C-193.34817353 175.80879831 -181.59086472 192.93501006 -167.5859375 208.08203125 C-167.11816895 208.59362793 -166.65040039 209.10522461 -166.16845703 209.63232422 C-152.25781442 224.68905479 -131.89308554 241.13957833 -110.55078125 242.23828125 C-86.74935401 241.54419346 -65.86176052 223.09912717 -50.2734375 206.70703125 C-38.70571707 193.48402969 -25.43379142 174.82944671 -26.24609375 156.50390625 C-29.88605091 130.56398163 -50.79880934 107.12494569 -70.88330078 91.81542969 C-100.38468533 70.4444812 -126.87752057 73.30613026 -154.5859375 97.08203125 Z " fill="#0065FF" transform="translate(610.5859375,967.91796875)"/>
<path d="M0 0 C27.72 0 55.44 0 84 0 C84.33 76.89 84.66 153.78 85 233 C87.97 229.37 90.94 225.74 94 222 C95.485 220.185 96.97 218.37 98.5 216.5 C99.24765625 215.58605469 99.9953125 214.67210937 100.765625 213.73046875 C102.21297051 211.96177205 103.66085301 210.19351457 105.109375 208.42578125 C110.15622207 202.26457561 115.18203157 196.08654545 120.20214844 189.90356445 C123.99875982 185.2287235 127.80837869 180.56477306 131.625 175.90625 C135.15653215 171.58476987 138.67303473 167.25111049 142.18994141 162.91772461 C146.04361165 158.17113077 149.91465283 153.43952015 153.8046875 148.72265625 C156.0198774 146.22357497 156.0198774 146.22357497 156.95256042 143.79626465 C158.63238614 140.61842794 160.01031079 139.0494637 163 137 C170.27676806 135.23662656 178.13662285 135.95761093 185.55859375 136.12109375 C187.79058768 136.13788941 190.0226149 136.15069606 192.25465393 136.15968323 C198.11632642 136.19397157 203.97597695 136.28231339 209.83685303 136.38201904 C215.82259774 136.47425104 221.8086707 136.5152263 227.79492188 136.56054688 C239.53083407 136.65693657 251.26524861 136.81044866 263 137 C261.61333975 139.85681057 260.17501776 142.18244185 258.12890625 144.6171875 C257.56018799 145.29942383 256.99146973 145.98166016 256.40551758 146.68457031 C255.79732178 147.40741211 255.18912598 148.13025391 254.5625 148.875 C250.06388155 154.27311135 245.62036106 159.69834771 241.3125 165.25 C237.37406376 170.31483332 233.29718828 175.23371803 229.12426758 180.10644531 C225.81147879 183.99304278 222.63326582 187.96770053 219.5 192 C215.49918743 197.14877299 211.36609011 202.1535141 207.125 207.10546875 C203.81208736 210.9924941 200.6335169 214.9673774 197.5 219 C193.50208531 224.14504363 189.37293816 229.14704091 185.13378906 234.09448242 C181.24357531 238.65736161 177.54756455 243.35703894 173.86791992 248.09033203 C170.40019527 252.53503174 166.79509093 256.82928574 163 261 C164.65185806 264.91726339 167.30424285 267.89088006 170.0625 271.0625 C171.06455869 272.22981968 172.06585029 273.39779826 173.06640625 274.56640625 C173.56414551 275.14664551 174.06188477 275.72688477 174.57470703 276.32470703 C176.58525686 278.6879124 178.54414643 281.09143529 180.5 283.5 C183.78823483 287.53983137 187.12721426 291.53092065 190.5 295.5 C194.62101634 300.34959381 198.66991354 305.25160806 202.6875 310.1875 C205.26146392 313.31799666 207.87569086 316.41172461 210.5 319.5 C214.62101634 324.34959381 218.66991354 329.25160806 222.6875 334.1875 C225.26146392 337.31799666 227.87569086 340.41172461 230.5 343.5 C234.61983299 348.34820125 238.66795964 353.24845845 242.68359375 358.18359375 C245.27787266 361.33785192 247.91606265 364.4520298 250.5625 367.5625 C254.43241802 372.11284316 258.19959897 376.72832835 261.91015625 381.41015625 C264.37185883 384.46082693 266.89833445 387.45127366 269.4375 390.4375 C272.97921893 394.60798456 276.51119375 398.78506822 280 403 C280.70125 403.845625 281.4025 404.69125 282.125 405.5625 C283.96339293 407.95241081 285.47147327 410.40495885 287 413 C273.8566692 413.23202748 260.71382803 413.4095482 247.56886387 413.51812172 C241.46452395 413.57024127 235.36158833 413.64089467 229.25805664 413.75439453 C223.36405144 413.86330814 217.47139395 413.92289555 211.57645988 413.94877243 C209.33127567 413.96720458 207.08616265 414.00320106 204.84155464 414.05730057 C187.23815231 414.46457926 187.23815231 414.46457926 181.65338135 410.81007385 C179.37488652 408.30902473 177.67352594 405.92845511 176 403 C175.18789062 402.03449219 174.37578125 401.06898438 173.5390625 400.07421875 C172.90742187 399.28660156 172.27578125 398.49898437 171.625 397.6875 C168.29981938 393.5802647 164.92337367 389.52516173 161.5 385.5 C157.37875818 380.65060094 153.33008186 375.74838629 149.3125 370.8125 C146.73853608 367.68200334 144.12430914 364.58827539 141.5 361.5 C137.37898366 356.65040619 133.33008646 351.74839194 129.3125 346.8125 C126.73853608 343.68200334 124.12430914 340.58827539 121.5 337.5 C118.12721426 333.53092065 114.78823483 329.53983137 111.5 325.5 C107.4470476 320.52395524 103.31762761 315.61853918 99.1640625 310.7265625 C94.43539492 305.15724291 89.71925321 299.57729925 85 294 C84.67 333.27 84.34 372.54 84 413 C56.28 413 28.56 413 0 413 C0 276.71 0 140.42 0 0 Z " fill="#000000" transform="translate(1672,917)"/>
<path d="M0 0 C20.98288265 19.4960917 37.3277568 47.14618663 42.75 75.5 C42.75 76.49 42.75 77.48 42.75 78.5 C14.04 78.5 -14.67 78.5 -44.25 78.5 C-46.89 73.88 -49.53 69.26 -52.25 64.5 C-61.7177252 51.83675249 -73.62583765 44.00811172 -89.19921875 40.9140625 C-106.43943044 38.57416181 -122.97553287 42.32562575 -137.10546875 52.5703125 C-151.08884758 64.3747382 -157.32105692 81.69564796 -159.25 99.5 C-160.83243887 119.33323378 -157.02135369 139.77231443 -144.25 155.5 C-141.83333229 158.25041666 -141.83333229 158.25041666 -139.25 160.5 C-138.55390625 161.20189453 -138.55390625 161.20189453 -137.84375 161.91796875 C-125.60144377 173.59016758 -109.67175359 175.10491037 -93.65625 174.8125 C-80.02181276 174.24597214 -68.4498062 168.1280858 -58.48828125 158.98046875 C-53.54607646 153.50350532 -48.96193283 146.64922796 -46.14884949 139.83113098 C-44.25 137.5 -44.25 137.5 -40.58638 136.89872742 C-39.0319792 136.88421432 -37.47717463 136.89757085 -35.9230957 136.93237305 C-34.64959763 136.93127785 -34.64959763 136.93127785 -33.35037231 136.93016052 C-30.5415274 136.9336466 -27.73433674 136.97255491 -24.92578125 137.01171875 C-22.97951666 137.02104327 -21.03324035 137.02816108 -19.08695984 137.03315735 C-13.96234785 137.05225556 -8.83844354 137.10138085 -3.71411133 137.15667725 C1.51406276 137.20780878 6.74235112 137.23065836 11.97070312 137.25585938 C22.23077982 137.30949671 32.49033108 137.39484379 42.75 137.5 C42.43761706 139.09362194 42.12347357 140.68689883 41.80859375 142.2800293 C41.54647095 143.6109687 41.54647095 143.6109687 41.27905273 144.96879578 C37.54480282 162.83497158 28.64152002 180.95556278 17.75 195.5 C17.18539063 196.28503906 16.62078125 197.07007813 16.0390625 197.87890625 C6.34782642 210.72296805 -5.53990148 222.092535 -19.25 230.5 C-20.70792969 231.43199219 -20.70792969 231.43199219 -22.1953125 232.3828125 C-53.4454798 251.63291556 -96.45932422 257.20102728 -132.0546875 249.03027344 C-133.14136719 248.76778809 -133.14136719 248.76778809 -134.25 248.5 C-135.02601562 248.31727539 -135.80203125 248.13455078 -136.6015625 247.94628906 C-162.50035406 241.60691444 -184.19799245 228.84334919 -203.25 210.5 C-204.01699219 209.80777344 -204.78398438 209.11554688 -205.57421875 208.40234375 C-228.73591655 186.82079768 -243.06645875 152.11416932 -244.41113281 120.74047852 C-244.78169759 86.66360011 -244.78169759 86.66360011 -241.25 73.5 C-241.05664062 72.736875 -240.86328125 71.97375 -240.6640625 71.1875 C-231.24620578 34.44623181 -209.02119936 3.71933248 -176.63964844 -16.09960938 C-121.78936487 -48.24317563 -47.44442322 -42.91213075 0 0 Z " fill="#000000" transform="translate(1601.25,1084.5)"/>
<path d="M0 0 C35.12727533 -0.76168837 71.08022417 9.05754896 98.0625 32.12109375 C98.83352051 32.77464844 98.83352051 32.77464844 99.62011719 33.44140625 C124.11692809 54.42552479 139.77361078 83.67664763 146.0625 115.12109375 C117.3525 115.12109375 88.6425 115.12109375 59.0625 115.12109375 C56.4225 110.50109375 53.7825 105.88109375 51.0625 101.12109375 C41.5947748 88.45784624 29.68666235 80.62920547 14.11328125 77.53515625 C-3.12693044 75.19525556 -19.66303287 78.9467195 -33.79296875 89.19140625 C-47.46774658 100.73531855 -54.14187682 117.6359717 -55.9375 135.12109375 C-57.51701894 156.9505033 -53.15148408 177.97334336 -38.9375 195.12109375 C-28.52240097 205.69215932 -14.41793981 211.27356005 0.28442383 211.50146484 C17.43801669 211.47039717 31.00148703 208.18933883 44.05078125 196.3046875 C50.12318 189.71348187 54.63990981 181.86062659 59.0625 174.12109375 C87.7725 174.12109375 116.4825 174.12109375 146.0625 174.12109375 C138.99433127 202.39376868 128.37207364 225.93459551 108.0625 247.12109375 C107.30582031 247.9409375 106.54914063 248.76078125 105.76953125 249.60546875 C85.45560421 270.94669063 56.89278017 282.98885955 28.0625 287.12109375 C26.91007813 287.30414062 25.75765625 287.4871875 24.5703125 287.67578125 C-14.65244504 292.40801521 -53.84873233 283.15989496 -85.859375 260.0078125 C-115.25814467 236.91499194 -135.67751486 204.02380018 -140.4765625 166.59375 C-144.6357746 128.43934513 -137.98688712 88.25848939 -114 57.18359375 C-112.33833997 55.14146017 -110.6508773 53.12003393 -108.9375 51.12109375 C-108.50856445 50.61529785 -108.07962891 50.10950195 -107.63769531 49.58837891 C-82.65178185 20.35171145 -47.0832184 3.69614426 -8.9375 0.37109375 C-5.95879674 0.21531973 -2.9801506 0.12285195 0 0 Z " fill="#000000" transform="translate(933.9375,1047.87890625)"/>
<path d="M0 0 C27.72 0 55.44 0 84 0 C84 136.29 84 272.58 84 413 C56.28 413 28.56 413 0 413 C0 276.71 0 140.42 0 0 Z " fill="#000000" transform="translate(1108,917)"/>
<path d="M0 0 C27.72 0 55.44 0 84 0 C84 91.08 84 182.16 84 276 C56.28 276 28.56 276 0 276 C0 184.92 0 93.84 0 0 Z " fill="#000000" transform="translate(1241,1054)"/>
<path d="M0 0 C12.44313973 8.51277391 20.89096676 19.76988274 23.80859375 34.6640625 C25.72918001 48.36311143 23.81437793 62.06237448 16.25 73.8125 C6.96950737 85.77244652 -4.6288419 94.28320881 -19.75 96.8125 C-34.97107902 98.29142483 -48.97413861 95.29171389 -61.27734375 85.87890625 C-71.76501817 77.03140948 -78.57229139 65.43345103 -80.75 51.8125 C-81.80880057 35.50289886 -78.20144836 22.07903501 -67.5 9.5625 C-49.80991869 -9.07420774 -22.24692548 -13.21295298 0 0 Z " fill="#000000" transform="translate(1310.75,921.1875)"/>
</svg>
